<?xml version="1.0" encoding="UTF-8"?>
<!DOCTYPE svg PUBLIC "-//W3C//DTD SVG 1.1//EN" "http://www.w3.org/Graphics/SVG/1.1/DTD/svg11.dtd">
<svg xmlns="http://www.w3.org/2000/svg" version="1.1" width="1024px" height="1024px" style="shape-rendering:geometricPrecision; text-rendering:geometricPrecision; image-rendering:optimizeQuality; fill-rule:evenodd; clip-rule:evenodd" xmlns:xlink="http://www.w3.org/1999/xlink">
<g><path style="opacity:1" fill="#000000" d="M -0.5,-0.5 C 70.1667,-0.5 140.833,-0.5 211.5,-0.5C 206.863,0.662536 202.196,1.66254 197.5,2.5C 191.556,2.62472 185.89,3.62472 180.5,5.5C 141.599,13.1143 107.933,30.4476 79.5,57.5C 75.2294,60.1009 71.5628,63.4342 68.5,67.5C 34.5752,101.341 13.2418,142.008 4.5,189.5C 2.58493,195.899 1.58493,202.565 1.5,209.5C 0.833333,211.5 0.166667,213.5 -0.5,215.5C -0.5,143.5 -0.5,71.5 -0.5,-0.5 Z"/></g>
<g><path style="opacity:1" fill="#309df3" d="M 211.5,-0.5 C 411.167,-0.5 610.833,-0.5 810.5,-0.5C 816.519,0.740922 822.519,2.07426 828.5,3.5C 833.23,5.23679 838.23,6.23679 843.5,6.5C 890.785,17.722 930.618,41.3887 963,77.5C 980.624,97.0725 994.457,119.073 1004.5,143.5C 1005.93,149.129 1007.93,154.463 1010.5,159.5C 1014.21,167.347 1016.54,175.68 1017.5,184.5C 1017.51,190.466 1018.51,196.132 1020.5,201.5C 1021.5,206.167 1022.5,210.833 1023.5,215.5C 1023.5,332.5 1023.5,449.5 1023.5,566.5C 1022.84,568.369 1022.17,570.369 1021.5,572.5C 1020.11,571.137 1018.44,570.304 1016.5,570C 1017.78,568.703 1017.62,567.536 1016,566.5C 1014.96,567.623 1014.29,568.956 1014,570.5C 1013.67,569.5 1013.33,568.5 1013,567.5C 1008.21,567.679 1007.71,566.179 1011.5,563C 1010.5,562.667 1009.5,562.333 1008.5,562C 1010.25,561.529 1011.91,560.862 1013.5,560C 1012.69,559.692 1012.03,559.192 1011.5,558.5C 1012.75,556.958 1012.75,555.458 1011.5,554C 1013.36,552.582 1013.86,550.749 1013,548.5C 1012.15,551.612 1010.98,551.946 1009.5,549.5C 1008.81,550.025 1008.31,550.692 1008,551.5C 1006.7,550.216 1005.54,550.383 1004.5,552C 1005.45,552.483 1006.45,552.649 1007.5,552.5C 1007.91,554.109 1007.91,555.443 1007.5,556.5C 1004.87,555.699 1003.03,554.033 1002,551.5C 1000.6,553.973 999.098,553.973 997.5,551.5C 998.5,550.167 999.5,548.833 1000.5,547.5C 999.282,547.891 998.448,547.224 998,545.5C 997.275,547.158 996.108,547.658 994.5,547C 995.167,546.667 995.833,546.333 996.5,546C 995.377,544.956 994.044,544.29 992.5,544C 995.493,543.573 995.993,542.406 994,540.5C 989.972,542.16 987.639,544.827 987,548.5C 985.706,547.146 985.54,545.812 986.5,544.5C 986.062,543.494 985.396,543.494 984.5,544.5C 983.614,543.675 983.281,542.675 983.5,541.5C 981.089,541.137 979.589,542.137 979,544.5C 977.488,543.743 976.154,542.743 975,541.5C 973.007,543.406 973.507,544.573 976.5,545C 972.864,545.626 972.864,546.793 976.5,548.5C 977.705,546.862 979.038,546.529 980.5,547.5C 979.818,548.13 979.818,549.63 980.5,552C 983.251,551.597 985.751,551.097 988,550.5C 988.617,551.449 988.451,552.282 987.5,553C 988.572,555.654 990.239,557.821 992.5,559.5C 993.052,557.997 993.052,556.331 992.5,554.5C 997.847,554.487 999.514,556.82 997.5,561.5C 994.98,562.232 992.646,563.398 990.5,565C 990.833,566 991.167,567 991.5,568C 990.062,569.569 988.562,571.069 987,572.5C 985.47,570.774 984.47,568.774 984,566.5C 982.89,568.397 982.724,570.23 983.5,572C 981.269,572.622 979.435,573.789 978,575.5C 976.887,574.289 975.72,574.289 974.5,575.5C 972.539,574.152 972.372,572.819 974,571.5C 975,571.833 976,572.167 977,572.5C 977.333,571.5 977.667,570.5 978,569.5C 979,569.167 980,568.833 981,568.5C 981.161,565.356 980.661,562.689 979.5,560.5C 978.319,561.515 977.319,562.681 976.5,564C 976.246,565.856 976.246,567.856 976.5,570C 974.892,570.658 973.725,570.158 973,568.5C 971.488,570.957 970.154,570.957 969,568.5C 968.149,571.612 966.983,571.946 965.5,569.5C 964.626,570.824 963.959,572.324 963.5,574C 961.567,574.251 959.734,574.751 958,575.5C 956.771,573.053 955.271,572.887 953.5,575C 954.552,576.716 953.886,577.716 951.5,578C 951.848,580.055 951.181,582.055 949.5,584C 950.328,584.915 951.328,585.581 952.5,586C 952.043,586.414 951.709,586.914 951.5,587.5C 953.465,592.011 956.632,593.344 961,591.5C 962.836,593.962 962.003,595.462 958.5,596C 960.23,597.852 961.396,597.686 962,595.5C 962.333,595.833 962.667,596.167 963,596.5C 963.333,595.167 963.667,593.833 964,592.5C 965.487,593.253 965.654,594.086 964.5,595C 966.577,595.807 968.411,596.974 970,598.5C 970.645,597.354 971.478,596.354 972.5,595.5C 972.062,594.494 971.396,594.494 970.5,595.5C 969.269,594.349 969.269,593.183 970.5,592C 968.122,591.026 968.456,590.359 971.5,590C 971.93,589.08 972.264,588.247 972.5,587.5C 973.086,587.709 973.586,588.043 974,588.5C 974.465,587.069 975.299,585.903 976.5,585C 975.953,584.075 975.287,583.242 974.5,582.5C 973.391,583.59 972.391,583.59 971.5,582.5C 973.149,581.352 974.649,580.019 976,578.5C 977.844,579.711 978.678,581.044 978.5,582.5C 979.114,578.93 980.448,578.597 982.5,581.5C 981.189,582.258 980.689,583.258 981,584.5C 982.011,583.663 983.178,583.33 984.5,583.5C 986.321,586.752 985.654,589.252 982.5,591C 984.932,592.087 984.598,592.587 981.5,592.5C 981.649,591.448 981.483,590.448 981,589.5C 977.745,592.987 975.245,596.487 973.5,600C 973.658,601.977 973.825,604.143 974,606.5C 973.282,605.549 972.449,605.383 971.5,606C 972.833,607.84 972.666,608.34 971,607.5C 969.903,609.053 968.57,610.386 967,611.5C 966.667,610.833 966.333,610.167 966,609.5C 965.464,611.567 965.964,613.401 967.5,615C 966.5,615.333 965.5,615.667 964.5,616C 964.833,616.333 965.167,616.667 965.5,617C 962.53,616.384 962.196,615.05 964.5,613C 962.754,610.226 961.254,610.726 960,614.5C 959.195,612.099 958.362,612.266 957.5,615C 958.888,615.889 958.722,616.389 957,616.5C 955.155,615.244 953.155,614.244 951,613.5C 948.853,614.596 948.353,616.096 949.5,618C 948.833,618.667 948.167,619.333 947.5,620C 949.382,622.108 951.715,623.441 954.5,624C 951.778,625.57 949.278,626.736 947,627.5C 946.549,625.071 945.715,624.904 944.5,627C 948.611,628.881 949.944,631.881 948.5,636C 949.5,636.333 950.5,636.667 951.5,637C 950.542,638.147 950.875,639.147 952.5,640C 950.606,641.101 949.939,642.434 950.5,644C 952.896,644.866 953.563,644.366 952.5,642.5C 953.737,641.719 954.737,640.719 955.5,639.5C 955.154,638.304 954.654,638.304 954,639.5C 952.804,637.388 951.804,635.388 951,633.5C 951.333,633.167 951.667,632.833 952,632.5C 952.71,633.973 953.876,634.64 955.5,634.5C 955.351,635.552 955.517,636.552 956,637.5C 957.623,629.743 959.123,629.909 960.5,638C 956.777,639.365 956.777,641.032 960.5,643C 960.167,643.333 959.833,643.667 959.5,644C 960.833,644.333 962.167,644.667 963.5,645C 962.935,646.674 962.768,648.507 963,650.5C 962.02,648.941 961.187,647.274 960.5,645.5C 958.694,646.859 957.194,646.525 956,644.5C 954.018,646.961 951.851,647.461 949.5,646C 948.87,644.108 947.87,642.441 946.5,641C 946.858,637.781 946.858,634.614 946.5,631.5C 946.192,630.692 945.692,630.025 945,629.5C 944.506,631.134 944.34,632.801 944.5,634.5C 942.61,634.703 941.11,634.037 940,632.5C 937.142,633.113 933.975,633.446 930.5,633.5C 929.777,631.836 930.11,630.169 931.5,628.5C 930.726,627.289 929.893,627.289 929,628.5C 928.308,627.975 927.808,627.308 927.5,626.5C 929.385,627.028 931.052,626.362 932.5,624.5C 934.055,624.722 935.389,625.389 936.5,626.5C 937.5,626 938.5,625.5 939.5,625C 938.328,624.581 937.328,623.915 936.5,623C 937.731,621.817 937.731,620.651 936.5,619.5C 935.833,620.833 935.167,622.167 934.5,623.5C 934.496,622.133 933.83,620.633 932.5,619C 932.879,616.812 934.046,614.645 936,612.5C 938.734,611.638 938.901,610.805 936.5,610C 937.833,609.333 939.167,608.667 940.5,608C 939.181,606.372 937.848,606.539 936.5,608.5C 932.793,607.687 932.627,606.354 936,604.5C 936.772,604.645 937.439,604.978 938,605.5C 938.576,602.876 939.91,602.209 942,603.5C 942.645,602.354 943.478,601.354 944.5,600.5C 943.242,601.016 942.242,600.35 941.5,598.5C 943.372,596.727 943.205,594.727 941,592.5C 938.833,594 939,595.167 941.5,596C 940.833,596.333 940.167,596.667 939.5,597C 940.821,598.545 940.488,599.711 938.5,600.5C 935.956,599.265 935.956,598.099 938.5,597C 937.833,596.667 937.167,596.333 936.5,596C 938.158,595.275 938.658,594.108 938,592.5C 937.237,595.063 936.737,595.063 936.5,592.5C 937.686,589.336 938.52,586.336 939,583.5C 937.605,585.14 936.105,586.64 934.5,588C 935.051,589.398 935.384,590.732 935.5,592C 933.983,593.779 933.149,593.279 933,590.5C 932.07,592.552 930.57,594.052 928.5,595C 928.833,596 929.167,597 929.5,598C 927.671,598.273 926.171,599.107 925,600.5C 923.933,599.809 922.766,599.309 921.5,599C 923.795,598.016 923.461,597.183 920.5,596.5C 919.94,598.377 918.773,600.377 917,602.5C 913.667,603.5 913.667,604.5 917,605.5C 918,605.167 919,604.833 920,604.5C 920.691,606.891 921.691,606.891 923,604.5C 925.635,606.461 927.469,608.961 928.5,612C 933.399,612.864 933.732,611.864 929.5,609C 931.167,608.333 932.833,608.333 934.5,609C 934.412,612.557 933.079,615.89 930.5,619C 930.833,619.333 931.167,619.667 931.5,620C 929.981,621.351 928.648,622.851 927.5,624.5C 925.51,623.537 925.177,622.204 926.5,620.5C 928.133,621.744 929.133,621.244 929.5,619C 927.513,618.346 926.18,617.013 925.5,615C 927.657,613.915 927.824,612.749 926,611.5C 925.417,613.002 924.584,614.335 923.5,615.5C 922.914,615.291 922.414,614.957 922,614.5C 921.097,615.701 919.931,616.535 918.5,617C 922.852,617.419 923.185,618.086 919.5,619C 920.833,619.333 922.167,619.667 923.5,620C 922.359,620.741 922.359,621.575 923.5,622.5C 922.369,623.604 921.535,623.271 921,621.5C 920.333,622.167 919.667,622.833 919,623.5C 918.577,622.044 917.744,621.544 916.5,622C 916.833,622.333 917.167,622.667 917.5,623C 914.782,624.415 914.115,626.415 915.5,629C 915,629.5 914.5,630 914,630.5C 913.781,629.062 913.281,627.729 912.5,626.5C 911.808,627.025 911.308,627.692 911,628.5C 909.903,626.947 908.57,625.614 907,624.5C 907.333,623.167 907.667,621.833 908,620.5C 907,621.833 906,621.833 905,620.5C 904.667,621.5 904.333,622.5 904,623.5C 902.128,619.735 901.295,619.735 901.5,623.5C 899.172,620.672 896.672,618.006 894,615.5C 889.594,616.909 886.927,619.909 886,624.5C 884.46,620.426 883.127,620.093 882,623.5C 881.667,622.833 881.333,622.167 881,621.5C 879.915,622.293 878.748,622.96 877.5,623.5C 876.949,625.413 876.782,627.413 877,629.5C 876.25,628.874 875.416,628.374 874.5,628C 875.28,626.927 875.113,625.76 874,624.5C 873.147,626.125 872.147,626.458 871,625.5C 869.033,626.731 869.199,627.731 871.5,628.5C 873.366,627.437 873.866,628.104 873,630.5C 872.667,630.833 872.333,631.167 872,631.5C 871.612,630.572 870.945,629.905 870,629.5C 868.584,630.573 867.25,630.573 866,629.5C 865.365,630.966 864.531,632.3 863.5,633.5C 864.522,634.354 865.355,635.354 866,636.5C 870.711,632.272 871.544,632.939 868.5,638.5C 865.539,639.183 865.205,640.016 867.5,641C 866.307,642.935 864.307,643.935 861.5,644C 862.672,644.419 863.672,645.085 864.5,646C 863.167,646.667 863.167,647.333 864.5,648C 862.893,648.115 861.393,647.615 860,646.5C 858.72,646.613 857.887,647.28 857.5,648.5C 857.132,650.506 857.632,652.506 859,654.5C 859.741,653.359 860.575,653.359 861.5,654.5C 862.382,655.76 863.382,656.926 864.5,658C 864.167,658.167 863.833,658.333 863.5,658.5C 860.419,656.202 856.753,653.702 852.5,651C 854.902,649.529 854.736,648.029 852,646.5C 850.088,647.692 848.088,648.692 846,649.5C 845.933,646.953 845.099,644.786 843.5,643C 844.047,642.075 844.713,641.242 845.5,640.5C 846.396,641.506 847.062,641.506 847.5,640.5C 846.5,639.167 845.5,637.833 844.5,636.5C 848.949,632.826 848.449,631.826 843,633.5C 841.238,633.056 841.405,632.556 843.5,632C 842.437,630.812 841.103,630.312 839.5,630.5C 839.5,629.167 839.5,627.833 839.5,626.5C 853.953,622.545 862.786,613.212 866,598.5C 866.319,491.375 827.153,401.875 748.5,330C 670.934,265.917 581.6,237.584 480.5,245C 374.317,255.655 288.817,302.822 224,386.5C 184.728,441.469 162.562,502.802 157.5,570.5C 156.732,569.737 156.232,568.737 156,567.5C 155.164,569.842 153.83,571.842 152,573.5C 151.217,571.567 151.717,570.067 153.5,569C 150.068,568.884 147.068,567.717 144.5,565.5C 143.522,565.977 142.689,566.643 142,567.5C 141.195,565.099 140.362,565.266 139.5,568C 140.793,568.49 142.127,568.657 143.5,568.5C 141.825,572.299 143.158,574.466 147.5,575C 143.326,576.508 142.659,578.841 145.5,582C 144.377,583.044 143.044,583.71 141.5,584C 142.833,584.333 144.167,584.667 145.5,585C 142.418,586.41 139.418,587.243 136.5,587.5C 135.773,586.517 136.107,585.517 137.5,584.5C 138.675,585.855 139.675,585.688 140.5,584C 139.24,582.887 138.073,582.72 137,583.5C 136.667,582.833 136.333,582.167 136,581.5C 135.333,582.833 134.667,582.833 134,581.5C 133.573,584.493 132.406,584.993 130.5,583C 133.198,580.005 132.865,577.338 129.5,575C 130.167,574.667 130.833,574.333 131.5,574C 130.376,573.751 129.376,573.251 128.5,572.5C 128.846,571.304 129.346,571.304 130,572.5C 130.273,570.899 130.773,569.399 131.5,568C 129.109,567.309 129.109,566.309 131.5,565C 129.837,564.735 128.337,565.235 127,566.5C 125.632,564.185 124.799,564.185 124.5,566.5C 126.748,568.849 128.081,571.682 128.5,575C 123.954,575.81 123.62,577.143 127.5,579C 125.122,580.633 122.956,583.133 121,586.5C 119.933,585.809 118.766,585.309 117.5,585C 118.214,583.657 117.88,582.324 116.5,581C 117.939,580.009 118.939,578.676 119.5,577C 117.749,578.145 115.916,578.645 114,578.5C 113.333,575.833 112.667,575.833 112,578.5C 110.036,576.147 109.536,573.647 110.5,571C 109.365,570.251 108.365,570.417 107.5,571.5C 108.645,572.891 108.645,574.224 107.5,575.5C 103.413,573.186 99.7464,571.186 96.5,569.5C 97.989,569.467 99.3224,568.967 100.5,568C 99.0403,567.189 98.707,566.355 99.5,565.5C 101.085,567.087 102.752,567.92 104.5,568C 103.216,569.297 103.383,570.464 105,571.5C 105.124,569.574 105.958,567.741 107.5,566C 106.773,564.601 106.273,563.101 106,561.5C 104.853,562.458 103.853,562.125 103,560.5C 102.692,561.308 102.192,561.975 101.5,562.5C 101.272,560.418 100.105,558.418 98,556.5C 97.3964,558.686 96.2297,558.852 94.5,557C 96.4812,556.395 96.8146,555.395 95.5,554C 97.2464,553.529 98.913,552.862 100.5,552C 99.0091,549.506 97.5091,547.006 96,544.5C 93.8637,545.03 92.0304,544.197 90.5,542C 91.1667,541.667 91.8333,541.333 92.5,541C 88.1482,540.581 87.8149,539.914 91.5,539C 90.2396,537.887 89.073,537.72 88,538.5C 87.5814,537.328 86.9147,536.328 86,535.5C 85.2276,536.849 84.0609,537.682 82.5,538C 83.8333,539 85.1667,540 86.5,541C 85.6598,542.666 86.1598,542.833 88,541.5C 88.7494,542.635 88.5827,543.635 87.5,544.5C 86.914,544.291 86.414,543.957 86,543.5C 84.3246,545.773 83.158,548.273 82.5,551C 83.5,551.333 84.5,551.667 85.5,552C 84.1279,552.402 82.7946,552.902 81.5,553.5C 80.7582,551.65 79.7582,550.984 78.5,551.5C 79.5,550.167 80.5,548.833 81.5,547.5C 81.1119,545.692 81.1119,544.025 81.5,542.5C 79.4816,541.187 78.3149,541.853 78,544.5C 75.624,542.524 73.124,541.691 70.5,542C 71.6537,541.086 71.487,540.253 70,539.5C 69.3086,541.891 68.3086,541.891 67,539.5C 65.7025,540.784 64.5358,540.617 63.5,539C 67.9525,537.818 68.2858,536.318 64.5,534.5C 60.825,539.825 60.1584,539.659 62.5,534C 59.6488,533.546 58.6488,534.546 59.5,537C 58.1667,539 56.8333,541 55.5,543C 56.6341,544.016 56.3008,544.683 54.5,545C 56.6324,545.918 57.299,547.251 56.5,549C 57.9308,549.465 59.0975,550.299 60,551.5C 60.5074,550.004 60.0074,548.837 58.5,548C 59.2529,546.513 60.0862,546.346 61,547.5C 62.2036,546.529 62.7036,545.529 62.5,544.5C 63.1924,545.025 63.6924,545.692 64,546.5C 67.5208,541.063 68.0208,541.229 65.5,547C 68.3646,546.459 70.3646,547.793 71.5,551C 69.0684,552.087 69.4017,552.587 72.5,552.5C 72.5,553.833 72.5,555.167 72.5,556.5C 70.8762,556.64 69.7096,555.973 69,554.5C 68.5498,557.064 69.7164,558.564 72.5,559C 71.4258,559.739 70.7591,560.739 70.5,562C 70.6123,565.182 71.1123,568.682 72,572.5C 75.4621,572.017 75.9621,570.85 73.5,569C 75.3687,567.398 77.3687,566.398 79.5,566C 77.2241,567.874 77.5575,569.541 80.5,571C 79.8333,571.333 79.1667,571.667 78.5,572C 80.3809,573.102 82.0475,574.435 83.5,576C 83.1377,577.225 82.6377,578.391 82,579.5C 80.2317,578.869 79.065,579.702 78.5,582C 78.9884,583.584 79.9884,584.751 81.5,585.5C 79.1441,586.654 78.9774,587.987 81,589.5C 83.0581,588.891 83.8914,587.891 83.5,586.5C 85.0778,587.64 86.7445,588.14 88.5,588C 87.8333,587.333 87.1667,586.667 86.5,586C 89.0578,584.62 89.0578,583.12 86.5,581.5C 87.2472,581.264 88.0805,580.93 89,580.5C 89.065,582.883 89.8983,583.55 91.5,582.5C 92.9305,585.273 92.2638,587.439 89.5,589C 89.8333,589.333 90.1667,589.667 90.5,590C 89.2161,590.684 88.0495,590.517 87,589.5C 85.4877,591.957 84.1544,591.957 83,589.5C 81.6321,591.027 81.1321,592.527 81.5,594C 85.6296,595.337 86.1296,597.171 83,599.5C 80.0386,598.504 77.0386,596.837 74,594.5C 73.6827,596.301 73.016,596.634 72,595.5C 71.8333,595.833 71.6667,596.167 71.5,596.5C 73.1932,597.228 74.6932,598.228 76,599.5C 77.2975,598.216 78.4642,598.383 79.5,600C 78.8333,600.333 78.1667,600.667 77.5,601C 81.2372,602.668 81.2372,604.001 77.5,605C 79.5951,605.556 79.7618,606.056 78,606.5C 76.779,605.728 75.779,604.728 75,603.5C 74.3333,604.833 73.6667,604.833 73,603.5C 72.5581,605.679 71.5581,606.345 70,605.5C 68.2002,607.317 66.0336,608.484 63.5,609C 63.9574,609.414 64.2907,609.914 64.5,610.5C 63.2643,611.357 61.931,612.023 60.5,612.5C 59.3652,611.897 58.3652,611.564 57.5,611.5C 60.0833,610.536 60.5833,609.202 59,607.5C 56.4633,612.09 53.63,612.423 50.5,608.5C 49.914,608.709 49.414,609.043 49,609.5C 48.6886,608.258 49.1886,607.258 50.5,606.5C 50.2907,605.914 49.9574,605.414 49.5,605C 50.7376,605.077 51.7376,604.911 52.5,604.5C 51.2889,603.28 51.2889,602.113 52.5,601C 49.6096,598.288 46.6096,597.788 43.5,599.5C 42.6922,601.423 42.1922,603.423 42,605.5C 41.6667,604.833 41.3333,604.167 41,603.5C 40.0975,604.701 38.9308,605.535 37.5,606C 37.9577,608.436 38.9577,610.936 40.5,613.5C 37.6836,615.217 35.5169,614.551 34,611.5C 30.6106,613.788 30.1106,616.455 32.5,619.5C 32.2907,620.086 31.9574,620.586 31.5,621C 32.6379,622.734 33.1379,624.568 33,626.5C 30.5008,625.202 28.1675,625.536 26,627.5C 26.9311,625.996 27.5977,624.329 28,622.5C 26.0126,623.218 24.1792,624.218 22.5,625.5C 20.4585,623.588 18.4585,623.421 16.5,625C 21.1782,625.197 21.5116,626.197 17.5,628C 20.3649,629.358 20.8649,631.191 19,633.5C 15.8414,632.377 12.8414,631.044 10,629.5C 9.66667,629.833 9.33333,630.167 9,630.5C 10.1503,628.405 10.6503,626.238 10.5,624C 8.77028,622.148 7.60361,622.314 7,624.5C 6.66667,623.833 6.33333,623.167 6,622.5C 5.09748,623.701 3.93081,624.535 2.5,625C 3.83333,626.333 5.16667,627.667 6.5,629C 5.83333,629.167 5.16667,629.333 4.5,629.5C 3.01036,628.16 1.34369,627.16 -0.5,626.5C -0.5,489.5 -0.5,352.5 -0.5,215.5C 0.166667,213.5 0.833333,211.5 1.5,209.5C 3.04187,203.047 4.04187,196.38 4.5,189.5C 13.2418,142.008 34.5752,101.341 68.5,67.5C 72.7706,64.8991 76.4372,61.5658 79.5,57.5C 107.933,30.4476 141.599,13.1143 180.5,5.5C 186.4,5.11717 192.067,4.11717 197.5,2.5C 202.196,1.66254 206.863,0.662536 211.5,-0.5 Z"/></g>
<g><path style="opacity:1" fill="#000000" d="M 810.5,-0.5 C 881.5,-0.5 952.5,-0.5 1023.5,-0.5C 1023.5,71.5 1023.5,143.5 1023.5,215.5C 1022.5,210.833 1021.5,206.167 1020.5,201.5C 1020.38,195.556 1019.38,189.89 1017.5,184.5C 1016.54,175.68 1014.21,167.347 1010.5,159.5C 1009.46,153.715 1007.46,148.382 1004.5,143.5C 994.457,119.073 980.624,97.0725 963,77.5C 930.618,41.3887 890.785,17.722 843.5,6.5C 838.794,4.6253 833.794,3.6253 828.5,3.5C 822.519,2.07426 816.519,0.740922 810.5,-0.5 Z"/></g>
<g><path style="opacity:1" fill="#3dc9f8" d="M 197.5,2.5 C 192.067,4.11717 186.4,5.11717 180.5,5.5C 185.89,3.62472 191.556,2.62472 197.5,2.5 Z"/></g>
<g><path style="opacity:1" fill="#3abff4" d="M 828.5,3.5 C 833.794,3.6253 838.794,4.6253 843.5,6.5C 838.23,6.23679 833.23,5.23679 828.5,3.5 Z"/></g>
<g><path style="opacity:1" fill="#3abff5" d="M 79.5,57.5 C 76.4372,61.5658 72.7706,64.8991 68.5,67.5C 71.5628,63.4342 75.2294,60.1009 79.5,57.5 Z"/></g>
<g><path style="opacity:1" fill="#3dc9f7" d="M 1004.5,143.5 C 1007.46,148.382 1009.46,153.715 1010.5,159.5C 1007.93,154.463 1005.93,149.129 1004.5,143.5 Z"/></g>
<g><path style="opacity:1" fill="#3ec5fa" d="M 1017.5,184.5 C 1019.38,189.89 1020.38,195.556 1020.5,201.5C 1018.51,196.132 1017.51,190.466 1017.5,184.5 Z"/></g>
<g><path style="opacity:1" fill="#3bcbf8" d="M 4.5,189.5 C 4.04187,196.38 3.04187,203.047 1.5,209.5C 1.58493,202.565 2.58493,195.899 4.5,189.5 Z"/></g>
<g><path style="opacity:1" fill="#fefefe" d="M 839.5,626.5 C 816.979,630.157 802.146,621.157 795,599.5C 791.794,505.249 753.294,429.416 679.5,372C 601.051,318.582 516.051,304.916 424.5,331C 346.991,357.509 290.491,407.676 255,481.5C 244.435,505.196 237.101,529.863 233,555.5C 231,571.511 229,587.511 227,603.5C 218.76,621.873 204.594,629.706 184.5,627C 164.766,620.556 155.433,606.889 156.5,586C 156.617,580.807 156.95,575.64 157.5,570.5C 162.562,502.802 184.728,441.469 224,386.5C 288.817,302.822 374.317,255.655 480.5,245C 581.6,237.584 670.934,265.917 748.5,330C 827.153,401.875 866.319,491.375 866,598.5C 862.786,613.212 853.953,622.545 839.5,626.5 Z"/></g>
<g><path style="opacity:1" fill="#309df3" d="M 839.5,626.5 C 839.5,627.833 839.5,629.167 839.5,630.5C 841.103,630.312 842.437,630.812 843.5,632C 841.405,632.556 841.238,633.056 843,633.5C 848.449,631.826 848.949,632.826 844.5,636.5C 845.5,637.833 846.5,639.167 847.5,640.5C 847.062,641.506 846.396,641.506 845.5,640.5C 844.713,641.242 844.047,642.075 843.5,643C 845.099,644.786 845.933,646.953 846,649.5C 848.088,648.692 850.088,647.692 852,646.5C 854.736,648.029 854.902,649.529 852.5,651C 856.753,653.702 860.419,656.202 863.5,658.5C 863.833,658.333 864.167,658.167 864.5,658C 863.382,656.926 862.382,655.76 861.5,654.5C 860.575,653.359 859.741,653.359 859,654.5C 857.632,652.506 857.132,650.506 857.5,648.5C 857.887,647.28 858.72,646.613 860,646.5C 861.393,647.615 862.893,648.115 864.5,648C 863.167,647.333 863.167,646.667 864.5,646C 863.672,645.085 862.672,644.419 861.5,644C 864.307,643.935 866.307,642.935 867.5,641C 865.205,640.016 865.539,639.183 868.5,638.5C 871.544,632.939 870.711,632.272 866,636.5C 865.355,635.354 864.522,634.354 863.5,633.5C 864.531,632.3 865.365,630.966 866,629.5C 867.25,630.573 868.584,630.573 870,629.5C 870.945,629.905 871.612,630.572 872,631.5C 872.333,631.167 872.667,630.833 873,630.5C 873.866,628.104 873.366,627.437 871.5,628.5C 869.199,627.731 869.033,626.731 871,625.5C 872.147,626.458 873.147,626.125 874,624.5C 875.113,625.76 875.28,626.927 874.5,628C 875.416,628.374 876.25,628.874 877,629.5C 876.782,627.413 876.949,625.413 877.5,623.5C 878.748,622.96 879.915,622.293 881,621.5C 881.333,622.167 881.667,622.833 882,623.5C 883.127,620.093 884.46,620.426 886,624.5C 886.927,619.909 889.594,616.909 894,615.5C 896.672,618.006 899.172,620.672 901.5,623.5C 901.295,619.735 902.128,619.735 904,623.5C 904.333,622.5 904.667,621.5 905,620.5C 906,621.833 907,621.833 908,620.5C 907.667,621.833 907.333,623.167 907,624.5C 908.57,625.614 909.903,626.947 911,628.5C 911.308,627.692 911.808,627.025 912.5,626.5C 913.281,627.729 913.781,629.062 914,630.5C 914.5,630 915,629.5 915.5,629C 914.115,626.415 914.782,624.415 917.5,623C 917.167,622.667 916.833,622.333 916.5,622C 917.744,621.544 918.577,622.044 919,623.5C 919.667,622.833 920.333,622.167 921,621.5C 921.535,623.271 922.369,623.604 923.5,622.5C 922.359,621.575 922.359,620.741 923.5,620C 922.167,619.667 920.833,619.333 919.5,619C 923.185,618.086 922.852,617.419 918.5,617C 919.931,616.535 921.097,615.701 922,614.5C 922.414,614.957 922.914,615.291 923.5,615.5C 924.584,614.335 925.417,613.002 926,611.5C 927.824,612.749 927.657,613.915 925.5,615C 926.18,617.013 927.513,618.346 929.5,619C 929.133,621.244 928.133,621.744 926.5,620.5C 925.177,622.204 925.51,623.537 927.5,624.5C 928.648,622.851 929.981,621.351 931.5,620C 931.167,619.667 930.833,619.333 930.5,619C 933.079,615.89 934.412,612.557 934.5,609C 932.833,608.333 931.167,608.333 929.5,609C 933.732,611.864 933.399,612.864 928.5,612C 927.469,608.961 925.635,606.461 923,604.5C 921.691,606.891 920.691,606.891 920,604.5C 919,604.833 918,605.167 917,605.5C 913.667,604.5 913.667,603.5 917,602.5C 918.773,600.377 919.94,598.377 920.5,596.5C 923.461,597.183 923.795,598.016 921.5,599C 922.766,599.309 923.933,599.809 925,600.5C 926.171,599.107 927.671,598.273 929.5,598C 929.167,597 928.833,596 928.5,595C 930.57,594.052 932.07,592.552 933,590.5C 933.149,593.279 933.983,593.779 935.5,592C 935.384,590.732 935.051,589.398 934.5,588C 936.105,586.64 937.605,585.14 939,583.5C 938.52,586.336 937.686,589.336 936.5,592.5C 936.737,595.063 937.237,595.063 938,592.5C 938.658,594.108 938.158,595.275 936.5,596C 937.167,596.333 937.833,596.667 938.5,597C 935.956,598.099 935.956,599.265 938.5,600.5C 940.488,599.711 940.821,598.545 939.5,597C 940.167,596.667 940.833,596.333 941.5,596C 939,595.167 938.833,594 941,592.5C 943.205,594.727 943.372,596.727 941.5,598.5C 942.242,600.35 943.242,601.016 944.5,600.5C 943.478,601.354 942.645,602.354 942,603.5C 939.91,602.209 938.576,602.876 938,605.5C 937.439,604.978 936.772,604.645 936,604.5C 932.627,606.354 932.793,607.687 936.5,608.5C 937.848,606.539 939.181,606.372 940.5,608C 939.167,608.667 937.833,609.333 936.5,610C 938.901,610.805 938.734,611.638 936,612.5C 934.046,614.645 932.879,616.812 932.5,619C 933.83,620.633 934.496,622.133 934.5,623.5C 935.167,622.167 935.833,620.833 936.5,619.5C 937.731,620.651 937.731,621.817 936.5,623C 937.328,623.915 938.328,624.581 939.5,625C 938.5,625.5 937.5,626 936.5,626.5C 935.389,625.389 934.055,624.722 932.5,624.5C 931.052,626.362 929.385,627.028 927.5,626.5C 927.808,627.308 928.308,627.975 929,628.5C 929.893,627.289 930.726,627.289 931.5,628.5C 930.11,630.169 929.777,631.836 930.5,633.5C 933.975,633.446 937.142,633.113 940,632.5C 941.11,634.037 942.61,634.703 944.5,634.5C 944.34,632.801 944.506,631.134 945,629.5C 945.692,630.025 946.192,630.692 946.5,631.5C 946.858,634.614 946.858,637.781 946.5,641C 947.87,642.441 948.87,644.108 949.5,646C 951.851,647.461 954.018,646.961 956,644.5C 957.194,646.525 958.694,646.859 960.5,645.5C 961.187,647.274 962.02,648.941 963,650.5C 962.768,648.507 962.935,646.674 963.5,645C 962.167,644.667 960.833,644.333 959.5,644C 959.833,643.667 960.167,643.333 960.5,643C 956.777,641.032 956.777,639.365 960.5,638C 959.123,629.909 957.623,629.743 956,637.5C 955.517,636.552 955.351,635.552 955.5,634.5C 953.876,634.64 952.71,633.973 952,632.5C 951.667,632.833 951.333,633.167 951,633.5C 951.804,635.388 952.804,637.388 954,639.5C 954.654,638.304 955.154,638.304 955.5,639.5C 954.737,640.719 953.737,641.719 952.5,642.5C 953.563,644.366 952.896,644.866 950.5,644C 949.939,642.434 950.606,641.101 952.5,640C 950.875,639.147 950.542,638.147 951.5,637C 950.5,636.667 949.5,636.333 948.5,636C 949.944,631.881 948.611,628.881 944.5,627C 945.715,624.904 946.549,625.071 947,627.5C 949.278,626.736 951.778,625.57 954.5,624C 951.715,623.441 949.382,622.108 947.5,620C 948.167,619.333 948.833,618.667 949.5,618C 948.353,616.096 948.853,614.596 951,613.5C 953.155,614.244 955.155,615.244 957,616.5C 958.722,616.389 958.888,615.889 957.5,615C 958.362,612.266 959.195,612.099 960,614.5C 961.254,610.726 962.754,610.226 964.5,613C 962.196,615.05 962.53,616.384 965.5,617C 965.167,616.667 964.833,616.333 964.5,616C 965.5,615.667 966.5,615.333 967.5,615C 965.964,613.401 965.464,611.567 966,609.5C 966.333,610.167 966.667,610.833 967,611.5C 968.57,610.386 969.903,609.053 971,607.5C 972.666,608.34 972.833,607.84 971.5,606C 972.449,605.383 973.282,605.549 974,606.5C 973.825,604.143 973.658,601.977 973.5,600C 975.245,596.487 977.745,592.987 981,589.5C 981.483,590.448 981.649,591.448 981.5,592.5C 984.598,592.587 984.932,592.087 982.5,591C 985.654,589.252 986.321,586.752 984.5,583.5C 983.178,583.33 982.011,583.663 981,584.5C 980.689,583.258 981.189,582.258 982.5,581.5C 980.448,578.597 979.114,578.93 978.5,582.5C 978.678,581.044 977.844,579.711 976,578.5C 974.649,580.019 973.149,581.352 971.5,582.5C 972.391,583.59 973.391,583.59 974.5,582.5C 975.287,583.242 975.953,584.075 976.5,585C 975.299,585.903 974.465,587.069 974,588.5C 973.586,588.043 973.086,587.709 972.5,587.5C 972.264,588.247 971.93,589.08 971.5,590C 968.456,590.359 968.122,591.026 970.5,592C 969.269,593.183 969.269,594.349 970.5,595.5C 971.396,594.494 972.062,594.494 972.5,595.5C 971.478,596.354 970.645,597.354 970,598.5C 968.411,596.974 966.577,595.807 964.5,595C 965.654,594.086 965.487,593.253 964,592.5C 963.667,593.833 963.333,595.167 963,596.5C 962.667,596.167 962.333,595.833 962,595.5C 961.396,597.686 960.23,597.852 958.5,596C 962.003,595.462 962.836,593.962 961,591.5C 956.632,593.344 953.465,592.011 951.5,587.5C 951.709,586.914 952.043,586.414 952.5,586C 951.328,585.581 950.328,584.915 949.5,584C 951.181,582.055 951.848,580.055 951.5,578C 953.886,577.716 954.552,576.716 953.5,575C 955.271,572.887 956.771,573.053 958,575.5C 959.734,574.751 961.567,574.251 963.5,574C 963.959,572.324 964.626,570.824 965.5,569.5C 966.983,571.946 968.149,571.612 969,568.5C 970.154,570.957 971.488,570.957 973,568.5C 973.725,570.158 974.892,570.658 976.5,570C 976.246,567.856 976.246,565.856 976.5,564C 977.319,562.681 978.319,561.515 979.5,560.5C 980.661,562.689 981.161,565.356 981,568.5C 980,568.833 979,569.167 978,569.5C 977.667,570.5 977.333,571.5 977,572.5C 976,572.167 975,571.833 974,571.5C 972.372,572.819 972.539,574.152 974.5,575.5C 975.72,574.289 976.887,574.289 978,575.5C 979.435,573.789 981.269,572.622 983.5,572C 982.724,570.23 982.89,568.397 984,566.5C 984.47,568.774 985.47,570.774 987,572.5C 988.562,571.069 990.062,569.569 991.5,568C 991.167,567 990.833,566 990.5,565C 992.646,563.398 994.98,562.232 997.5,561.5C 999.514,556.82 997.847,554.487 992.5,554.5C 993.052,556.331 993.052,557.997 992.5,559.5C 990.239,557.821 988.572,555.654 987.5,553C 988.451,552.282 988.617,551.449 988,550.5C 985.751,551.097 983.251,551.597 980.5,552C 979.818,549.63 979.818,548.13 980.5,547.5C 979.038,546.529 977.705,546.862 976.5,548.5C 972.864,546.793 972.864,545.626 976.5,545C 973.507,544.573 973.007,543.406 975,541.5C 976.154,542.743 977.488,543.743 979,544.5C 979.589,542.137 981.089,541.137 983.5,541.5C 983.281,542.675 983.614,543.675 984.5,544.5C 985.396,543.494 986.062,543.494 986.5,544.5C 985.54,545.812 985.706,547.146 987,548.5C 987.639,544.827 989.972,542.16 994,540.5C 995.993,542.406 995.493,543.573 992.5,544C 994.044,544.29 995.377,544.956 996.5,546C 995.833,546.333 995.167,546.667 994.5,547C 996.108,547.658 997.275,547.158 998,545.5C 998.448,547.224 999.282,547.891 1000.5,547.5C 999.5,548.833 998.5,550.167 997.5,551.5C 999.098,553.973 1000.6,553.973 1002,551.5C 1003.03,554.033 1004.87,555.699 1007.5,556.5C 1007.91,555.443 1007.91,554.109 1007.5,552.5C 1006.45,552.649 1005.45,552.483 1004.5,552C 1005.54,550.383 1006.7,550.216 1008,551.5C 1008.31,550.692 1008.81,550.025 1009.5,549.5C 1010.98,551.946 1012.15,551.612 1013,548.5C 1013.86,550.749 1013.36,552.582 1011.5,554C 1012.75,555.458 1012.75,556.958 1011.5,558.5C 1012.03,559.192 1012.69,559.692 1013.5,560C 1011.91,560.862 1010.25,561.529 1008.5,562C 1009.5,562.333 1010.5,562.667 1011.5,563C 1007.71,566.179 1008.21,567.679 1013,567.5C 1013.33,568.5 1013.67,569.5 1014,570.5C 1014.29,568.956 1014.96,567.623 1016,566.5C 1017.62,567.536 1017.78,568.703 1016.5,570C 1018.44,570.304 1020.11,571.137 1021.5,572.5C 1022.17,570.369 1022.84,568.369 1023.5,566.5C 1023.5,646.833 1023.5,727.167 1023.5,807.5C 1022.02,816.2 1020.35,824.867 1018.5,833.5C 1016.55,839.249 1015.21,845.249 1014.5,851.5C 1013.94,856.165 1012.61,860.498 1010.5,864.5C 1008.25,868.586 1006.58,872.919 1005.5,877.5C 980.802,938.698 937.802,981.865 876.5,1007C 868.014,1010.22 859.348,1012.72 850.5,1014.5C 847.171,1014.22 844.171,1014.88 841.5,1016.5C 829.882,1019.08 818.215,1021.41 806.5,1023.5C 608.833,1023.5 411.167,1023.5 213.5,1023.5C 133.61,1014.49 72.7763,975.823 31,907.5C 26.2745,898.718 22.1078,889.718 18.5,880.5C 13.5277,866.258 9.19433,851.925 5.5,837.5C 5.12887,831.924 4.12887,826.591 2.5,821.5C 1.5,816.833 0.5,812.167 -0.5,807.5C -0.5,747.167 -0.5,686.833 -0.5,626.5C 1.34369,627.16 3.01036,628.16 4.5,629.5C 5.16667,629.333 5.83333,629.167 6.5,629C 5.16667,627.667 3.83333,626.333 2.5,625C 3.93081,624.535 5.09748,623.701 6,622.5C 6.33333,623.167 6.66667,623.833 7,624.5C 7.60361,622.314 8.77028,622.148 10.5,624C 10.6503,626.238 10.1503,628.405 9,630.5C 9.33333,630.167 9.66667,629.833 10,629.5C 12.8414,631.044 15.8414,632.377 19,633.5C 20.8649,631.191 20.3649,629.358 17.5,628C 21.5116,626.197 21.1782,625.197 16.5,625C 18.4585,623.421 20.4585,623.588 22.5,625.5C 24.1792,624.218 26.0126,623.218 28,622.5C 27.5977,624.329 26.9311,625.996 26,627.5C 28.1675,625.536 30.5008,625.202 33,626.5C 33.1379,624.568 32.6379,622.734 31.5,621C 31.9574,620.586 32.2907,620.086 32.5,619.5C 30.1106,616.455 30.6106,613.788 34,611.5C 35.5169,614.551 37.6836,615.217 40.5,613.5C 38.9577,610.936 37.9577,608.436 37.5,606C 38.9308,605.535 40.0975,604.701 41,603.5C 41.3333,604.167 41.6667,604.833 42,605.5C 42.1922,603.423 42.6922,601.423 43.5,599.5C 46.6096,597.788 49.6096,598.288 52.5,601C 51.2889,602.113 51.2889,603.28 52.5,604.5C 51.7376,604.911 50.7376,605.077 49.5,605C 49.9574,605.414 50.2907,605.914 50.5,606.5C 49.1886,607.258 48.6886,608.258 49,609.5C 49.414,609.043 49.914,608.709 50.5,608.5C 53.63,612.423 56.4633,612.09 59,607.5C 60.5833,609.202 60.0833,610.536 57.5,611.5C 58.3652,611.564 59.3652,611.897 60.5,612.5C 61.931,612.023 63.2643,611.357 64.5,610.5C 64.2907,609.914 63.9574,609.414 63.5,609C 66.0336,608.484 68.2002,607.317 70,605.5C 71.5581,606.345 72.5581,605.679 73,603.5C 73.6667,604.833 74.3333,604.833 75,603.5C 75.779,604.728 76.779,605.728 78,606.5C 79.7618,606.056 79.5951,605.556 77.5,605C 81.2372,604.001 81.2372,602.668 77.5,601C 78.1667,600.667 78.8333,600.333 79.5,600C 78.4642,598.383 77.2975,598.216 76,599.5C 74.6932,598.228 73.1932,597.228 71.5,596.5C 71.6667,596.167 71.8333,595.833 72,595.5C 73.016,596.634 73.6827,596.301 74,594.5C 77.0386,596.837 80.0386,598.504 83,599.5C 86.1296,597.171 85.6296,595.337 81.5,594C 81.1321,592.527 81.6321,591.027 83,589.5C 84.1544,591.957 85.4877,591.957 87,589.5C 88.0495,590.517 89.2161,590.684 90.5,590C 90.1667,589.667 89.8333,589.333 89.5,589C 92.2638,587.439 92.9305,585.273 91.5,582.5C 89.8983,583.55 89.065,582.883 89,580.5C 88.0805,580.93 87.2472,581.264 86.5,581.5C 89.0578,583.12 89.0578,584.62 86.5,586C 87.1667,586.667 87.8333,587.333 88.5,588C 86.7445,588.14 85.0778,587.64 83.5,586.5C 83.8914,587.891 83.0581,588.891 81,589.5C 78.9774,587.987 79.1441,586.654 81.5,585.5C 79.9884,584.751 78.9884,583.584 78.5,582C 79.065,579.702 80.2317,578.869 82,579.5C 82.6377,578.391 83.1377,577.225 83.5,576C 82.0475,574.435 80.3809,573.102 78.5,572C 79.1667,571.667 79.8333,571.333 80.5,571C 77.5575,569.541 77.2241,567.874 79.5,566C 77.3687,566.398 75.3687,567.398 73.5,569C 75.9621,570.85 75.4621,572.017 72,572.5C 71.1123,568.682 70.6123,565.182 70.5,562C 70.7591,560.739 71.4258,559.739 72.5,559C 69.7164,558.564 68.5498,557.064 69,554.5C 69.7096,555.973 70.8762,556.64 72.5,556.5C 72.5,555.167 72.5,553.833 72.5,552.5C 69.4017,552.587 69.0684,552.087 71.5,551C 70.3646,547.793 68.3646,546.459 65.5,547C 68.0208,541.229 67.5208,541.063 64,546.5C 63.6924,545.692 63.1924,545.025 62.5,544.5C 62.7036,545.529 62.2036,546.529 61,547.5C 60.0862,546.346 59.2529,546.513 58.5,548C 60.0074,548.837 60.5074,550.004 60,551.5C 59.0975,550.299 57.9308,549.465 56.5,549C 57.299,547.251 56.6324,545.918 54.5,545C 56.3008,544.683 56.6341,544.016 55.5,543C 56.8333,541 58.1667,539 59.5,537C 58.6488,534.546 59.6488,533.546 62.5,534C 60.1584,539.659 60.825,539.825 64.5,534.5C 68.2858,536.318 67.9525,537.818 63.5,539C 64.5358,540.617 65.7025,540.784 67,539.5C 68.3086,541.891 69.3086,541.891 70,539.5C 71.487,540.253 71.6537,541.086 70.5,542C 73.124,541.691 75.624,542.524 78,544.5C 78.3149,541.853 79.4816,541.187 81.5,542.5C 81.1119,544.025 81.1119,545.692 81.5,547.5C 80.5,548.833 79.5,550.167 78.5,551.5C 79.7582,550.984 80.7582,551.65 81.5,553.5C 82.7946,552.902 84.1279,552.402 85.5,552C 84.5,551.667 83.5,551.333 82.5,551C 83.158,548.273 84.3246,545.773 86,543.5C 86.414,543.957 86.914,544.291 87.5,544.5C 88.5827,543.635 88.7494,542.635 88,541.5C 86.1598,542.833 85.6598,542.666 86.5,541C 85.1667,540 83.8333,539 82.5,538C 84.0609,537.682 85.2276,536.849 86,535.5C 86.9147,536.328 87.5814,537.328 88,538.5C 89.073,537.72 90.2396,537.887 91.5,539C 87.8149,539.914 88.1482,540.581 92.5,541C 91.8333,541.333 91.1667,541.667 90.5,542C 92.0304,544.197 93.8637,545.03 96,544.5C 97.5091,547.006 99.0091,549.506 100.5,552C 98.913,552.862 97.2464,553.529 95.5,554C 96.8146,555.395 96.4812,556.395 94.5,557C 96.2297,558.852 97.3964,558.686 98,556.5C 100.105,558.418 101.272,560.418 101.5,562.5C 102.192,561.975 102.692,561.308 103,560.5C 103.853,562.125 104.853,562.458 106,561.5C 106.273,563.101 106.773,564.601 107.5,566C 105.958,567.741 105.124,569.574 105,571.5C 103.383,570.464 103.216,569.297 104.5,568C 102.752,567.92 101.085,567.087 99.5,565.5C 98.707,566.355 99.0403,567.189 100.5,568C 99.3224,568.967 97.989,569.467 96.5,569.5C 99.7464,571.186 103.413,573.186 107.5,575.5C 108.645,574.224 108.645,572.891 107.5,571.5C 108.365,570.417 109.365,570.251 110.5,571C 109.536,573.647 110.036,576.147 112,578.5C 112.667,575.833 113.333,575.833 114,578.5C 115.916,578.645 117.749,578.145 119.5,577C 118.939,578.676 117.939,580.009 116.5,581C 117.88,582.324 118.214,583.657 117.5,585C 118.766,585.309 119.933,585.809 121,586.5C 122.956,583.133 125.122,580.633 127.5,579C 123.62,577.143 123.954,575.81 128.5,575C 128.081,571.682 126.748,568.849 124.5,566.5C 124.799,564.185 125.632,564.185 127,566.5C 128.337,565.235 129.837,564.735 131.5,565C 129.109,566.309 129.109,567.309 131.5,568C 130.773,569.399 130.273,570.899 130,572.5C 129.346,571.304 128.846,571.304 128.5,572.5C 129.376,573.251 130.376,573.751 131.5,574C 130.833,574.333 130.167,574.667 129.5,575C 132.865,577.338 133.198,580.005 130.5,583C 132.406,584.993 133.573,584.493 134,581.5C 134.667,582.833 135.333,582.833 136,581.5C 136.333,582.167 136.667,582.833 137,583.5C 138.073,582.72 139.24,582.887 140.5,584C 139.675,585.688 138.675,585.855 137.5,584.5C 136.107,585.517 135.773,586.517 136.5,587.5C 139.418,587.243 142.418,586.41 145.5,585C 144.167,584.667 142.833,584.333 141.5,584C 143.044,583.71 144.377,583.044 145.5,582C 142.659,578.841 143.326,576.508 147.5,575C 143.158,574.466 141.825,572.299 143.5,568.5C 142.127,568.657 140.793,568.49 139.5,568C 140.362,565.266 141.195,565.099 142,567.5C 142.689,566.643 143.522,565.977 144.5,565.5C 147.068,567.717 150.068,568.884 153.5,569C 151.717,570.067 151.217,571.567 152,573.5C 153.83,571.842 155.164,569.842 156,567.5C 156.232,568.737 156.732,569.737 157.5,570.5C 156.95,575.64 156.617,580.807 156.5,586C 155.433,606.889 164.766,620.556 184.5,627C 204.594,629.706 218.76,621.873 227,603.5C 229,587.511 231,571.511 233,555.5C 237.101,529.863 244.435,505.196 255,481.5C 290.491,407.676 346.991,357.509 424.5,331C 516.051,304.916 601.051,318.582 679.5,372C 753.294,429.416 791.794,505.249 795,599.5C 802.146,621.157 816.979,630.157 839.5,626.5 Z"/></g>
<g><path style="opacity:1" fill="#fefefe" d="M 499.5,514.5 C 543.965,511.972 575.799,530.639 595,570.5C 609.56,614.144 598.727,649.977 562.5,678C 526.484,699.508 491.15,698.508 456.5,675C 423.7,646.642 414.2,611.809 428,570.5C 442.077,539.244 465.91,520.577 499.5,514.5 Z"/></g>
<g><path style="opacity:1" fill="#fefefe" d="M 498.5,375.5 C 589.071,373.857 658.571,410.857 707,486.5C 724.71,517.3 734.543,550.467 736.5,586C 737.439,603.801 730.105,616.801 714.5,625C 691.086,631.708 674.92,623.875 666,601.5C 663.085,541.317 635.585,496.484 583.5,467C 550.406,451.022 515.739,446.356 479.5,453C 429.264,464.92 393.097,494.086 371,540.5C 363.286,559.403 359.286,579.07 359,599.5C 350.462,623.187 333.962,631.687 309.5,625C 293.829,617.12 286.163,604.287 286.5,586.5C 292.679,509.932 327.679,450.765 391.5,409C 424.486,389.008 460.153,377.841 498.5,375.5 Z"/></g>
<g><path style="opacity:1" fill="#000000" d="M -0.5,807.5 C 0.5,812.167 1.5,816.833 2.5,821.5C 2.6556,827.116 3.6556,832.449 5.5,837.5C 7.64223,852.586 11.9756,866.919 18.5,880.5C 22.1078,889.718 26.2745,898.718 31,907.5C 72.7763,975.823 133.61,1014.49 213.5,1023.5C 142.167,1023.5 70.8333,1023.5 -0.5,1023.5C -0.5,951.5 -0.5,879.5 -0.5,807.5 Z"/></g>
<g><path style="opacity:1" fill="#000000" d="M 1023.5,807.5 C 1023.5,879.5 1023.5,951.5 1023.5,1023.5C 951.167,1023.5 878.833,1023.5 806.5,1023.5C 818.215,1021.41 829.882,1019.08 841.5,1016.5C 844.727,1016.32 847.727,1015.66 850.5,1014.5C 859.348,1012.72 868.014,1010.22 876.5,1007C 937.802,981.865 980.802,938.698 1005.5,877.5C 1008.13,873.623 1009.8,869.29 1010.5,864.5C 1012.61,860.498 1013.94,856.165 1014.5,851.5C 1016.71,845.809 1018.04,839.809 1018.5,833.5C 1020.35,824.867 1022.02,816.2 1023.5,807.5 Z"/></g>
<g><path style="opacity:1" fill="#3ecdf8" d="M 2.5,821.5 C 4.12887,826.591 5.12887,831.924 5.5,837.5C 3.6556,832.449 2.6556,827.116 2.5,821.5 Z"/></g>
<g><path style="opacity:1" fill="#3ccaf9" d="M 1018.5,833.5 C 1018.04,839.809 1016.71,845.809 1014.5,851.5C 1015.21,845.249 1016.55,839.249 1018.5,833.5 Z"/></g>
<g><path style="opacity:1" fill="#3bc3f7" d="M 5.5,837.5 C 9.19433,851.925 13.5277,866.258 18.5,880.5C 11.9756,866.919 7.64223,852.586 5.5,837.5 Z"/></g>
<g><path style="opacity:1" fill="#3ac0f7" d="M 1010.5,864.5 C 1009.8,869.29 1008.13,873.623 1005.5,877.5C 1006.58,872.919 1008.25,868.586 1010.5,864.5 Z"/></g>
<g><path style="opacity:1" fill="#40cffa" d="M 850.5,1014.5 C 847.727,1015.66 844.727,1016.32 841.5,1016.5C 844.171,1014.88 847.171,1014.22 850.5,1014.5 Z"/></g>
</svg>
